<svg data-v-423bf9ae="" xmlns="http://www.w3.org/2000/svg" viewBox="0 0 777 90" class="iconLeftSlogan"><!----><!----><!----><g data-v-423bf9ae="" id="b543aca9-ad9e-46b8-86a5-2d6bec23d9cb" fill="#1F321D" transform="matrix(4.240282514041758,0,0,4.240282514041758,109.10953635383316,-11.830387575585405)"><path d="M10.00 6.31L10.00 6.31Q10.89 6.71 10.89 7.28L10.89 7.28Q10.89 7.52 10.67 8.04Q10.44 8.57 10.29 8.96L10.29 8.96L8.75 12.71Q8.54 13.33 8.05 13.58L8.05 13.58Q7.84 13.68 7.52 13.68Q7.20 13.68 6.90 13.43Q6.59 13.19 6.50 12.94L6.50 12.94L6.38 12.70Q6.27 12.42 5.56 10.51L5.56 10.51Q5.42 10.85 5.15 11.61Q4.87 12.38 4.79 12.57Q4.72 12.75 4.70 12.82Q4.68 12.88 4.58 13.05Q4.48 13.22 4.35 13.34L4.35 13.34Q4.02 13.68 3.58 13.68Q3.15 13.68 2.86 13.43Q2.56 13.19 2.46 12.94L2.46 12.94L0.35 7.78Q0.21 7.36 0.21 7.24L0.21 7.24Q0.21 6.68 1.01 6.36L1.01 6.36Q1.46 6.17 1.74 6.17Q2.02 6.17 2.19 6.29Q2.37 6.41 2.44 6.53Q2.51 6.65 2.55 6.78L2.55 6.78Q2.79 7.34 3.54 9.41L3.54 9.41L4.37 7.14Q4.45 6.86 4.68 6.65L4.68 6.65Q5.08 6.24 5.50 6.24Q5.92 6.24 6.22 6.47Q6.52 6.69 6.64 6.92L6.64 6.92L6.75 7.15Q7.45 9.11 7.57 9.39L7.57 9.39L8.43 7.07Q8.76 6.17 9.44 6.17L9.44 6.17Q9.70 6.17 10.00 6.31ZM18.49 9.07Q18.49 9.93 18.07 10.34Q17.64 10.75 17.12 10.75L17.12 10.75L13.80 10.75Q13.80 11.14 14.27 11.41Q14.73 11.68 15.19 11.68L15.19 11.68Q16.00 11.68 16.46 11.51L16.46 11.51L16.62 11.45Q16.95 11.30 17.18 11.30L17.18 11.30Q17.63 11.30 17.95 11.93L17.95 11.93Q18.13 12.31 18.13 12.57L18.13 12.57Q18.13 13.82 15.15 13.82L15.15 13.82Q14.11 13.82 13.31 13.46Q12.50 13.10 12.05 12.52L12.05 12.52Q11.17 11.38 11.17 9.98L11.17 9.98Q11.17 8.22 12.31 7.16Q13.45 6.10 15.16 6.10L15.16 6.10Q17.11 6.10 18.02 7.48L18.02 7.48Q18.49 8.20 18.49 9.07ZM13.78 9.48L15.54 9.48Q16.07 9.48 16.07 9.03L16.07 9.03Q16.07 8.71 15.83 8.51Q15.58 8.32 15.13 8.32Q14.67 8.32 14.22 8.69Q13.78 9.06 13.78 9.48L13.78 9.48ZM19.46 12.98L19.46 12.98Q19.19 12.81 19.19 12.45Q19.19 12.08 19.73 11.34L19.73 11.34Q19.88 11.10 20.22 11.10Q20.57 11.10 21.15 11.45Q21.74 11.79 22.22 11.79L22.22 11.79Q23.07 11.79 23.07 11.45L23.07 11.45Q23.07 11.19 22.13 11.06L22.13 11.06Q21.25 10.93 20.38 10.40L20.38 10.40Q19.98 10.15 19.71 9.61Q19.45 9.07 19.45 8.33L19.45 8.33Q19.45 6.12 22.48 6.12L22.48 6.12Q23.48 6.12 24.53 6.59L24.53 6.59Q25.02 6.82 25.02 7.15Q25.02 7.49 24.71 7.98Q24.40 8.47 24.08 8.47L24.08 8.47Q23.91 8.47 23.46 8.26Q23.00 8.05 22.47 8.05L22.47 8.05Q21.64 8.05 21.64 8.36L21.64 8.36Q21.64 8.78 22.60 8.90L22.60 8.90Q23.52 9.00 24.39 9.44L24.39 9.44Q24.79 9.63 25.07 10.12Q25.34 10.60 25.34 11.33Q25.34 12.05 25.07 12.57Q24.79 13.08 24.30 13.33L24.30 13.33Q23.41 13.76 22.06 13.76Q20.71 13.76 19.46 12.98ZM26.25 10.68L26.25 4.02Q26.25 3.70 26.27 3.54Q26.29 3.37 26.39 3.16L26.39 3.16Q26.59 2.79 27.48 2.79L27.48 2.79Q28.34 2.79 28.55 3.16L28.55 3.16Q28.66 3.37 28.68 3.54Q28.70 3.71 28.70 4.03L28.70 4.03L28.70 10.51Q28.70 11.02 28.78 11.15Q28.87 11.28 29.16 11.28Q29.44 11.28 29.54 11.31Q29.64 11.33 29.78 11.42L29.78 11.42Q30.06 11.61 30.06 12.42L30.06 12.42Q30.06 13.30 29.78 13.50L29.78 13.50Q29.41 13.75 28.04 13.58L28.04 13.58Q26.96 13.44 26.64 12.87L26.64 12.87Q26.25 12.18 26.25 10.68L26.25 10.68ZM37.80 9.07Q37.80 9.93 37.37 10.34Q36.95 10.75 36.43 10.75L36.43 10.75L33.11 10.75Q33.11 11.14 33.57 11.41Q34.03 11.68 34.50 11.68L34.50 11.68Q35.31 11.68 35.77 11.51L35.77 11.51L35.92 11.45Q36.26 11.30 36.48 11.30L36.48 11.30Q36.93 11.30 37.25 11.93L37.25 11.93Q37.44 12.31 37.44 12.57L37.44 12.57Q37.44 13.82 34.45 13.82L34.45 13.82Q33.42 13.82 32.61 13.46Q31.81 13.10 31.36 12.52L31.36 12.52Q30.48 11.38 30.48 9.98L30.48 9.98Q30.48 8.22 31.62 7.16Q32.76 6.10 34.47 6.10L34.47 6.10Q36.41 6.10 37.32 7.48L37.32 7.48Q37.80 8.20 37.80 9.07ZM33.08 9.48L34.85 9.48Q35.38 9.48 35.38 9.03L35.38 9.03Q35.38 8.71 35.13 8.51Q34.89 8.32 34.43 8.32Q33.98 8.32 33.53 8.69Q33.08 9.06 33.08 9.48L33.08 9.48ZM45.15 6.34L45.15 6.34Q45.98 6.71 45.98 7.22L45.98 7.22Q45.98 7.48 45.86 7.70Q45.75 7.92 45.75 7.94L45.75 7.94L42.08 16.14Q41.97 16.41 41.89 16.55Q41.82 16.69 41.65 16.81Q41.48 16.94 41.23 16.94Q40.98 16.94 40.49 16.73L40.49 16.73Q39.66 16.37 39.66 15.86L39.66 15.86Q39.66 15.53 41.01 12.66L41.01 12.66L38.22 7.97Q37.94 7.50 37.94 7.28L37.94 7.28Q37.94 6.83 38.70 6.38L38.70 6.38Q39.17 6.10 39.44 6.10Q39.70 6.10 39.87 6.22Q40.04 6.33 40.12 6.45Q40.19 6.57 40.89 7.75Q41.58 8.93 42.21 9.95L42.21 9.95Q42.28 9.73 42.97 8.23Q43.65 6.72 43.70 6.62Q43.75 6.52 43.86 6.38L43.86 6.38Q44.04 6.15 44.37 6.15Q44.70 6.15 45.15 6.34ZM50.34 12.98L50.34 12.98Q50.08 12.81 50.08 12.45Q50.08 12.08 50.61 11.34L50.61 11.34Q50.76 11.10 51.11 11.10Q51.45 11.10 52.04 11.45Q52.63 11.79 53.10 11.79L53.10 11.79Q53.96 11.79 53.96 11.45L53.96 11.45Q53.96 11.19 53.02 11.06L53.02 11.06Q52.14 10.93 51.27 10.40L51.27 10.40Q50.86 10.15 50.60 9.61Q50.33 9.07 50.33 8.33L50.33 8.33Q50.33 6.12 53.37 6.12L53.37 6.12Q54.36 6.12 55.41 6.59L55.41 6.59Q55.90 6.82 55.90 7.15Q55.90 7.49 55.59 7.98Q55.29 8.47 54.96 8.47L54.96 8.47Q54.80 8.47 54.34 8.26Q53.89 8.05 53.35 8.05L53.35 8.05Q52.53 8.05 52.53 8.36L52.53 8.36Q52.53 8.78 53.48 8.90L53.48 8.90Q54.40 9.00 55.27 9.44L55.27 9.44Q55.68 9.63 55.95 10.12Q56.22 10.60 56.22 11.33Q56.22 12.05 55.95 12.57Q55.68 13.08 55.19 13.33L55.19 13.33Q54.29 13.76 52.94 13.76Q51.59 13.76 50.34 12.98ZM61.22 6.29L61.22 6.29Q62.62 6.29 63.55 7.35Q64.48 8.41 64.48 9.95L64.48 9.95L64.48 12.42Q64.48 12.74 64.46 12.90Q64.44 13.06 64.33 13.27L64.33 13.27Q64.15 13.64 63.25 13.64L63.25 13.64Q62.40 13.64 62.19 13.27L62.19 13.27Q62.08 13.06 62.05 12.89Q62.03 12.73 62.03 12.39L62.03 12.39L62.03 9.94Q62.03 9.37 61.71 9.04Q61.39 8.72 60.89 8.72Q60.40 8.72 60.02 9.02Q59.64 9.32 59.58 9.70L59.58 9.70L59.58 12.42Q59.58 12.74 59.56 12.90Q59.54 13.06 59.43 13.27L59.43 13.27Q59.25 13.64 58.35 13.64L58.35 13.64Q57.47 13.64 57.27 13.26L57.27 13.26Q57.18 13.05 57.16 12.89Q57.13 12.74 57.13 12.40L57.13 12.40L57.13 4.03Q57.13 3.71 57.16 3.55Q57.18 3.39 57.27 3.19L57.27 3.19Q57.47 2.81 58.37 2.81L58.37 2.81Q59.25 2.81 59.43 3.19L59.43 3.19Q59.54 3.40 59.56 3.56Q59.58 3.72 59.58 4.05L59.58 4.05L59.58 7.14Q60.28 6.29 61.22 6.29ZM65.60 12.40L65.60 7.49Q65.60 7.17 65.63 7.01Q65.65 6.85 65.74 6.64L65.74 6.64Q65.94 6.27 66.84 6.27L66.84 6.27Q67.51 6.27 67.79 6.51L67.79 6.51Q68.03 6.71 68.04 7.11L68.04 7.11Q68.05 7.25 68.05 7.52L68.05 7.52L68.05 12.42Q68.05 12.74 68.03 12.90Q68.01 13.06 67.90 13.27L67.90 13.27Q67.72 13.64 66.82 13.64L66.82 13.64Q65.94 13.64 65.74 13.26L65.74 13.26Q65.65 13.05 65.63 12.89Q65.60 12.74 65.60 12.40L65.60 12.40ZM67.91 4.89Q67.80 5.10 67.54 5.18Q67.27 5.26 66.83 5.26Q66.39 5.26 66.12 5.18Q65.86 5.10 65.75 4.89Q65.65 4.68 65.63 4.52Q65.60 4.35 65.60 4.03Q65.60 3.71 65.63 3.55Q65.65 3.39 65.74 3.19L65.74 3.19Q65.94 2.81 66.84 2.81L66.84 2.81Q67.72 2.81 67.90 3.19L67.90 3.19Q68.01 3.40 68.03 3.56Q68.05 3.72 68.05 4.05Q68.05 4.37 68.03 4.53Q68.01 4.69 67.91 4.89ZM74.19 6.34Q74.45 6.43 74.63 6.63Q74.80 6.83 74.80 7.28Q74.80 7.73 74.54 8.26Q74.27 8.79 73.77 8.79L73.77 8.79Q73.51 8.79 73.28 8.68Q73.05 8.57 72.67 8.57Q72.30 8.57 71.97 8.83Q71.64 9.10 71.64 9.48L71.64 9.48L71.64 12.42Q71.64 12.74 71.62 12.90Q71.60 13.06 71.48 13.27L71.48 13.27Q71.27 13.64 70.39 13.64L70.39 13.64Q69.72 13.64 69.43 13.40L69.43 13.40Q69.20 13.20 69.17 12.80L69.17 12.80Q69.17 12.66 69.17 12.39L69.17 12.39L69.17 7.48Q69.17 7.15 69.20 6.99Q69.22 6.83 69.31 6.64L69.31 6.64Q69.51 6.26 70.41 6.26L70.41 6.26Q71.25 6.26 71.46 6.58L71.46 6.58Q71.61 6.80 71.61 7.04L71.61 7.04Q71.68 6.94 71.81 6.80Q71.95 6.66 72.38 6.43Q72.81 6.19 73.14 6.19Q73.47 6.19 73.70 6.22Q73.92 6.26 74.19 6.34ZM75.57 10.68L75.57 4.02Q75.57 3.70 75.59 3.54Q75.61 3.37 75.71 3.16L75.71 3.16Q75.91 2.79 76.80 2.79L76.80 2.79Q77.66 2.79 77.87 3.16L77.87 3.16Q77.98 3.37 78.00 3.54Q78.02 3.71 78.02 4.03L78.02 4.03L78.02 10.51Q78.02 11.02 78.11 11.15Q78.19 11.28 78.48 11.28Q78.76 11.28 78.86 11.31Q78.96 11.33 79.10 11.42L79.10 11.42Q79.38 11.61 79.38 12.42L79.38 12.42Q79.38 13.30 79.10 13.50L79.10 13.50Q78.74 13.75 77.36 13.58L77.36 13.58Q76.29 13.44 75.96 12.87L75.96 12.87Q75.57 12.18 75.57 10.68L75.57 10.68ZM87.12 9.07Q87.12 9.93 86.70 10.34Q86.27 10.75 85.75 10.75L85.75 10.75L82.43 10.75Q82.43 11.14 82.89 11.41Q83.36 11.68 83.82 11.68L83.82 11.68Q84.63 11.68 85.09 11.51L85.09 11.51L85.25 11.45Q85.58 11.30 85.81 11.30L85.81 11.30Q86.25 11.30 86.58 11.93L86.58 11.93Q86.76 12.31 86.76 12.57L86.76 12.57Q86.76 13.82 83.78 13.82L83.78 13.82Q82.74 13.82 81.94 13.46Q81.13 13.10 80.68 12.52L80.68 12.52Q79.80 11.38 79.80 9.98L79.80 9.98Q79.80 8.22 80.94 7.16Q82.08 6.10 83.79 6.10L83.79 6.10Q85.74 6.10 86.65 7.48L86.65 7.48Q87.12 8.20 87.12 9.07ZM82.40 9.48L84.17 9.48Q84.70 9.48 84.70 9.03L84.70 9.03Q84.70 8.71 84.45 8.51Q84.21 8.32 83.75 8.32Q83.30 8.32 82.85 8.69Q82.40 9.06 82.40 9.48L82.40 9.48ZM94.47 6.34L94.47 6.34Q95.30 6.71 95.30 7.22L95.30 7.22Q95.30 7.48 95.19 7.70Q95.07 7.92 95.07 7.94L95.07 7.94L91.41 16.14Q91.29 16.41 91.22 16.55Q91.14 16.69 90.97 16.81Q90.80 16.94 90.55 16.94Q90.30 16.94 89.81 16.73L89.81 16.73Q88.98 16.37 88.98 15.86L88.98 15.86Q88.98 15.53 90.33 12.66L90.33 12.66L87.54 7.97Q87.26 7.50 87.26 7.28L87.26 7.28Q87.26 6.83 88.02 6.38L88.02 6.38Q88.49 6.10 88.76 6.10Q89.03 6.10 89.19 6.22Q89.36 6.33 89.44 6.45Q89.52 6.57 90.21 7.75Q90.90 8.93 91.53 9.95L91.53 9.95Q91.60 9.73 92.29 8.23Q92.97 6.72 93.02 6.62Q93.07 6.52 93.18 6.38L93.18 6.38Q93.37 6.15 93.70 6.15Q94.02 6.15 94.47 6.34ZM101.92 9.95Q101.92 10.54 102.31 10.87Q102.70 11.20 103.15 11.20Q103.59 11.20 103.97 10.94Q104.36 10.68 104.59 10.68L104.59 10.68Q105.01 10.68 105.62 11.42L105.62 11.42Q105.94 11.83 105.94 12.15L105.94 12.15Q105.94 12.68 105.17 13.15L105.17 13.15Q104.37 13.71 103.21 13.71L103.21 13.71Q101.91 13.71 100.70 12.77L100.70 12.77Q100.13 12.32 99.76 11.57Q99.40 10.82 99.40 9.92Q99.40 9.02 99.76 8.28Q100.13 7.55 100.70 7.10L100.70 7.10Q101.86 6.17 103.18 6.17L103.18 6.17Q103.71 6.17 104.22 6.32Q104.72 6.47 104.96 6.61L104.96 6.61L105.18 6.75Q105.43 6.92 105.57 7.01L105.57 7.01Q105.94 7.29 105.94 7.65Q105.94 8.01 105.64 8.46L105.64 8.46Q105.14 9.23 104.68 9.23L104.68 9.23Q104.41 9.23 103.92 8.92L103.92 8.92Q103.67 8.68 103.20 8.68Q102.73 8.68 102.33 9.02Q101.92 9.35 101.92 9.95ZM110.85 6.29L110.85 6.29Q112.25 6.29 113.18 7.35Q114.11 8.41 114.11 9.95L114.11 9.95L114.11 12.42Q114.11 12.74 114.09 12.90Q114.07 13.06 113.96 13.27L113.96 13.27Q113.78 13.64 112.88 13.64L112.88 13.64Q112.03 13.64 111.82 13.27L111.82 13.27Q111.71 13.06 111.69 12.89Q111.66 12.73 111.66 12.39L111.66 12.39L111.66 9.94Q111.66 9.37 111.34 9.04Q111.02 8.72 110.52 8.72Q110.03 8.72 109.65 9.02Q109.27 9.32 109.21 9.70L109.21 9.70L109.21 12.42Q109.21 12.74 109.19 12.90Q109.17 13.06 109.06 13.27L109.06 13.27Q108.88 13.64 107.98 13.64L107.98 13.64Q107.10 13.64 106.90 13.26L106.90 13.26Q106.81 13.05 106.79 12.89Q106.76 12.74 106.76 12.40L106.76 12.40L106.76 4.03Q106.76 3.71 106.79 3.55Q106.81 3.39 106.90 3.19L106.90 3.19Q107.10 2.81 108.00 2.81L108.00 2.81Q108.88 2.81 109.06 3.19L109.06 3.19Q109.17 3.40 109.19 3.56Q109.21 3.72 109.21 4.05L109.21 4.05L109.21 7.14Q109.91 6.29 110.85 6.29ZM120.25 6.34Q120.51 6.43 120.69 6.63Q120.86 6.83 120.86 7.28Q120.86 7.73 120.60 8.26Q120.33 8.79 119.83 8.79L119.83 8.79Q119.57 8.79 119.34 8.68Q119.11 8.57 118.73 8.57Q118.36 8.57 118.03 8.83Q117.70 9.10 117.70 9.48L117.70 9.48L117.70 12.42Q117.70 12.74 117.68 12.90Q117.66 13.06 117.54 13.27L117.54 13.27Q117.33 13.64 116.45 13.64L116.45 13.64Q115.78 13.64 115.49 13.40L115.49 13.40Q115.26 13.20 115.23 12.80L115.23 12.80Q115.23 12.66 115.23 12.39L115.23 12.39L115.23 7.48Q115.23 7.15 115.26 6.99Q115.28 6.83 115.37 6.64L115.37 6.64Q115.57 6.26 116.47 6.26L116.47 6.26Q117.31 6.26 117.52 6.58L117.52 6.58Q117.67 6.80 117.67 7.04L117.67 7.04Q117.74 6.94 117.87 6.80Q118.01 6.66 118.44 6.43Q118.87 6.19 119.20 6.19Q119.53 6.19 119.76 6.22Q119.98 6.26 120.25 6.34ZM121.63 12.40L121.63 7.49Q121.63 7.17 121.65 7.01Q121.67 6.85 121.77 6.64L121.77 6.64Q121.97 6.27 122.86 6.27L122.86 6.27Q123.54 6.27 123.82 6.51L123.82 6.51Q124.05 6.71 124.07 7.11L124.07 7.11Q124.08 7.25 124.08 7.52L124.08 7.52L124.08 12.42Q124.08 12.74 124.06 12.90Q124.04 13.06 123.93 13.27L123.93 13.27Q123.75 13.64 122.85 13.64L122.85 13.64Q121.97 13.64 121.77 13.26L121.77 13.26Q121.67 13.05 121.65 12.89Q121.63 12.74 121.63 12.40L121.63 12.40ZM123.94 4.89Q123.83 5.10 123.56 5.18Q123.30 5.26 122.86 5.26Q122.42 5.26 122.15 5.18Q121.88 5.10 121.78 4.89Q121.67 4.68 121.65 4.52Q121.63 4.35 121.63 4.03Q121.63 3.71 121.65 3.55Q121.67 3.39 121.77 3.19L121.77 3.19Q121.97 2.81 122.86 2.81L122.86 2.81Q123.75 2.81 123.93 3.19L123.93 3.19Q124.04 3.40 124.06 3.56Q124.08 3.72 124.08 4.05Q124.08 4.37 124.06 4.53Q124.04 4.69 123.94 4.89ZM125.26 12.98L125.26 12.98Q124.99 12.81 124.99 12.45Q124.99 12.08 125.52 11.34L125.52 11.34Q125.68 11.10 126.02 11.10Q126.36 11.10 126.95 11.45Q127.54 11.79 128.02 11.79L128.02 11.79Q128.87 11.79 128.87 11.45L128.87 11.45Q128.87 11.19 127.93 11.06L127.93 11.06Q127.05 10.93 126.18 10.40L126.18 10.40Q125.78 10.15 125.51 9.61Q125.24 9.07 125.24 8.33L125.24 8.33Q125.24 6.12 128.28 6.12L128.28 6.12Q129.28 6.12 130.33 6.59L130.33 6.59Q130.82 6.82 130.82 7.15Q130.82 7.49 130.51 7.98Q130.20 8.47 129.88 8.47L129.88 8.47Q129.71 8.47 129.25 8.26Q128.80 8.05 128.27 8.05L128.27 8.05Q127.44 8.05 127.44 8.36L127.44 8.36Q127.44 8.78 128.39 8.90L128.39 8.90Q129.32 9.00 130.19 9.44L130.19 9.44Q130.59 9.63 130.87 10.12Q131.14 10.60 131.14 11.33Q131.14 12.05 130.87 12.57Q130.59 13.08 130.10 13.33L130.10 13.33Q129.21 13.76 127.85 13.76Q126.50 13.76 125.26 12.98ZM136.11 8.74L136.11 8.74L135.20 8.68L135.20 10.61Q135.20 10.99 135.32 11.16Q135.44 11.33 135.77 11.33Q136.09 11.33 136.27 11.35Q136.44 11.37 136.64 11.48L136.64 11.48Q136.96 11.66 136.96 12.42L136.96 12.42Q136.96 13.30 136.57 13.50L136.57 13.50Q136.36 13.59 136.20 13.62Q136.04 13.64 135.73 13.64L135.73 13.64Q134.27 13.64 133.52 12.98Q132.76 12.32 132.76 10.75L132.76 10.75L132.76 8.68Q132.50 8.72 132.19 8.72Q131.88 8.72 131.68 8.48Q131.47 8.25 131.47 7.67Q131.47 7.10 131.54 6.84Q131.61 6.58 131.74 6.47L131.74 6.47Q131.96 6.29 132.30 6.29L132.30 6.29L132.76 6.34L132.76 4.90Q132.76 4.58 132.78 4.42Q132.80 4.27 132.92 4.09L132.92 4.09Q133.10 3.74 133.99 3.74L133.99 3.74Q134.95 3.74 135.13 4.26L135.13 4.26Q135.20 4.48 135.20 4.97L135.20 4.97L135.20 6.34Q135.81 6.29 136.13 6.29Q136.44 6.29 136.61 6.31Q136.77 6.33 136.98 6.44L136.98 6.44Q137.34 6.62 137.34 7.52L137.34 7.52Q137.34 8.40 136.96 8.60L136.96 8.60Q136.75 8.69 136.59 8.71Q136.43 8.74 136.11 8.74ZM138.11 12.40L138.11 7.49Q138.11 7.17 138.13 7.01Q138.15 6.85 138.25 6.64L138.25 6.64Q138.45 6.27 139.34 6.27L139.34 6.27Q140.01 6.27 140.29 6.51L140.29 6.51Q140.53 6.71 140.55 7.11L140.55 7.11Q140.56 7.25 140.56 7.52L140.56 7.52L140.56 12.42Q140.56 12.74 140.54 12.90Q140.52 13.06 140.41 13.27L140.41 13.27Q140.22 13.64 139.33 13.64L139.33 13.64Q138.45 13.64 138.25 13.26L138.25 13.26Q138.15 13.05 138.13 12.89Q138.11 12.74 138.11 12.40L138.11 12.40ZM140.41 4.89Q140.31 5.10 140.04 5.18Q139.78 5.26 139.34 5.26Q138.89 5.26 138.63 5.18Q138.36 5.10 138.26 4.89Q138.15 4.68 138.13 4.52Q138.11 4.35 138.11 4.03Q138.11 3.71 138.13 3.55Q138.15 3.39 138.25 3.19L138.25 3.19Q138.45 2.81 139.34 2.81L139.34 2.81Q140.22 2.81 140.41 3.19L140.41 3.19Q140.52 3.40 140.54 3.56Q140.56 3.72 140.56 4.05Q140.56 4.37 140.54 4.53Q140.52 4.69 140.41 4.89ZM146.47 7.04L146.47 7.04Q146.55 6.26 147.57 6.26L147.57 6.26Q148.12 6.26 148.39 6.34Q148.65 6.43 148.76 6.64Q148.86 6.85 148.88 7.01Q148.90 7.17 148.90 7.49L148.90 7.49L148.90 12.39Q148.90 12.71 148.88 12.87Q148.86 13.03 148.76 13.24L148.76 13.24Q148.57 13.61 147.81 13.61Q147.04 13.61 146.78 13.42Q146.52 13.23 146.48 12.87L146.48 12.87Q145.96 13.61 144.75 13.61Q143.54 13.61 142.51 12.50Q141.47 11.40 141.47 9.93Q141.47 8.47 142.51 7.37Q143.56 6.27 144.80 6.27L144.80 6.27Q145.28 6.27 145.67 6.44Q146.06 6.61 146.22 6.76Q146.37 6.90 146.47 7.04ZM143.92 9.95Q143.92 10.42 144.28 10.79Q144.65 11.16 145.17 11.16Q145.68 11.16 146.03 10.78Q146.37 10.40 146.37 9.95Q146.37 9.49 146.04 9.10Q145.71 8.71 145.16 8.71Q144.61 8.71 144.26 9.10Q143.92 9.49 143.92 9.95ZM154.13 6.26L154.13 6.26Q155.53 6.26 156.46 7.33Q157.39 8.40 157.39 9.94L157.39 9.94L157.39 12.40Q157.39 12.73 157.37 12.89Q157.35 13.05 157.25 13.24L157.25 13.24Q157.05 13.62 156.16 13.62L156.16 13.62Q155.16 13.62 155.01 13.10L155.01 13.10Q154.92 12.87 154.92 12.39L154.92 12.39L154.92 9.93Q154.92 9.35 154.59 9.03Q154.27 8.71 153.71 8.71Q153.16 8.71 152.82 9.04Q152.47 9.38 152.47 9.93L152.47 9.93L152.47 12.40Q152.47 12.73 152.45 12.89Q152.43 13.05 152.32 13.24L152.32 13.24Q152.14 13.62 151.24 13.62L151.24 13.62Q150.36 13.62 150.16 13.24L150.16 13.24Q150.07 13.03 150.04 12.87Q150.02 12.71 150.02 12.39L150.02 12.39L150.02 7.43Q150.02 7.13 150.04 6.97Q150.07 6.80 150.18 6.61L150.18 6.61Q150.37 6.26 151.26 6.26L151.26 6.26Q152.11 6.26 152.31 6.58L152.31 6.58Q152.45 6.82 152.45 7.15L152.45 7.15Q152.50 7.06 152.70 6.87Q152.89 6.69 153.08 6.58L153.08 6.58Q153.55 6.26 154.13 6.26Z"></path></g><defs data-v-423bf9ae=""><linearGradient data-v-423bf9ae="" gradientTransform="rotate(25)" id="96af54e9-1f43-46d2-b107-02fe04b7c96b" x1="0%" y1="0%" x2="100%" y2="0%"><stop data-v-423bf9ae="" offset="0%" style="stop-color: rgb(0, 238, 225); stop-opacity: 1;"></stop><stop data-v-423bf9ae="" offset="100%" style="stop-color: rgb(255, 210, 51); stop-opacity: 1;"></stop></linearGradient></defs><g data-v-423bf9ae="" id="ddced445-74be-438b-a2b4-957f41772c33" transform="matrix(2.8125,0,0,2.8125,0,0)" stroke="none" fill="url(#96af54e9-1f43-46d2-b107-02fe04b7c96b)"><path d="M29.625 1l-3.099 3.172H4.054v23.657h22.472L29.625 31H1V1h28.625M32 0H0v32h32l-5.054-5.172H5.054V5.172h21.893L32 0z"></path><path d="M21.038 10.962v10.076H10.962V10.962h10.076m1-1H9.962v12.076h12.076V9.962z"></path></g><!----><g data-v-423bf9ae="" id="d0b23b01-4051-4489-8396-2ef2245062f3" fill="#1F321D" transform="matrix(1.0113620016208915,0,0,1.0113620016208915,109.43363402922739,56.753528681017556)"><path d="M8.13 5.45Q8.50 6.19 8.50 7.10Q8.50 8.01 8.13 8.74Q7.77 9.48 7.20 9.91L7.20 9.91Q6.03 10.81 4.79 10.81L4.79 10.81L3.04 10.81L3.04 12.39Q3.04 12.71 3.02 12.87Q3.00 13.03 2.88 13.24L2.88 13.24Q2.69 13.62 1.79 13.62L1.79 13.62Q0.81 13.62 0.64 13.10L0.64 13.10Q0.56 12.87 0.56 12.38L0.56 12.38L0.56 4.61Q0.56 4.28 0.58 4.12Q0.60 3.96 0.71 3.75L0.71 3.75Q0.91 3.37 1.81 3.37L1.81 3.37L4.80 3.37Q6.03 3.37 7.20 4.27L7.20 4.27Q7.77 4.70 8.13 5.45ZM4.80 8.33Q5.22 8.33 5.63 8.02Q6.03 7.71 6.03 7.10Q6.03 6.48 5.63 6.17Q5.22 5.85 4.79 5.85L4.79 5.85L3.04 5.85L3.04 8.33L4.80 8.33ZM17.26 11.90L17.26 11.90Q17.47 12.40 17.47 12.63L17.47 12.63Q17.47 13.16 16.60 13.52L16.60 13.52Q16.16 13.72 15.88 13.72Q15.61 13.72 15.44 13.59Q15.26 13.45 15.18 13.31L15.18 13.31Q15.04 13.05 14.08 10.78L14.08 10.78L13.65 10.81L11.89 10.81L11.89 12.39Q11.89 12.71 11.87 12.87Q11.84 13.03 11.73 13.24L11.73 13.24Q11.54 13.62 10.64 13.62L10.64 13.62Q9.66 13.62 9.49 13.10L9.49 13.10Q9.41 12.87 9.41 12.38L9.41 12.38L9.41 4.61Q9.41 4.28 9.43 4.12Q9.45 3.96 9.56 3.75L9.56 3.75Q9.76 3.37 10.65 3.37L10.65 3.37L13.68 3.37Q14.91 3.37 16.07 4.27L16.07 4.27Q16.63 4.70 17.00 5.45Q17.36 6.19 17.36 7.10L17.36 7.10Q17.36 8.68 16.31 9.70L16.31 9.70Q16.62 10.44 17.26 11.90ZM11.89 5.85L11.89 8.33L13.68 8.33Q14.08 8.33 14.49 8.02Q14.90 7.71 14.90 7.10Q14.90 6.48 14.49 6.17Q14.08 5.85 13.65 5.85L13.65 5.85L11.89 5.85ZM22.92 3.25L22.92 3.25Q24.99 3.25 26.52 4.75Q28.04 6.24 28.04 8.46Q28.04 10.68 26.59 12.24Q25.13 13.80 23.00 13.80Q20.87 13.80 19.38 12.26Q17.89 10.72 17.89 8.60L17.89 8.60Q17.89 7.43 18.31 6.42Q18.73 5.40 19.43 4.72Q20.13 4.03 21.04 3.64Q21.95 3.25 22.92 3.25ZM20.37 8.53Q20.37 9.77 21.18 10.55Q21.98 11.33 22.97 11.33Q23.97 11.33 24.77 10.57Q25.56 9.81 25.56 8.54Q25.56 7.27 24.76 6.50Q23.95 5.73 22.96 5.73Q21.97 5.73 21.17 6.50Q20.37 7.28 20.37 8.53ZM30.23 3.37L35.74 3.37Q36.06 3.37 36.23 3.40Q36.39 3.42 36.59 3.53Q36.79 3.64 36.88 3.91Q36.96 4.17 36.96 4.62Q36.96 5.07 36.88 5.33Q36.79 5.60 36.58 5.71Q36.37 5.81 36.21 5.83Q36.05 5.85 35.71 5.85L35.71 5.85L31.43 5.85L31.43 7.27L34.19 7.27Q34.52 7.27 34.69 7.29Q34.85 7.31 35.06 7.42L35.06 7.42Q35.42 7.63 35.42 8.53L35.42 8.53Q35.42 9.51 34.89 9.69L34.89 9.69Q34.66 9.76 34.17 9.76L34.17 9.76L31.43 9.76L31.43 12.40Q31.43 12.74 31.41 12.89Q31.39 13.05 31.28 13.26L31.28 13.26Q31.08 13.64 30.18 13.64L30.18 13.64Q29.20 13.64 29.04 13.10L29.04 13.10Q28.95 12.88 28.95 12.39L28.95 12.39L28.95 4.61Q28.95 3.89 29.22 3.63Q29.48 3.37 30.23 3.37L30.23 3.37ZM40.35 9.74L40.35 11.16L44.66 11.16Q44.98 11.16 45.14 11.18Q45.30 11.20 45.51 11.31L45.51 11.31Q45.89 11.51 45.89 12.40L45.89 12.40Q45.89 13.38 45.37 13.55L45.37 13.55Q45.14 13.64 44.65 13.64L44.65 13.64L39.10 13.64Q38.12 13.64 37.95 13.10L37.95 13.10Q37.87 12.88 37.87 12.39L37.87 12.39L37.87 4.61Q37.87 3.89 38.14 3.63Q38.40 3.37 39.14 3.37L39.14 3.37L44.66 3.37Q44.98 3.37 45.14 3.40Q45.30 3.42 45.51 3.53L45.51 3.53Q45.89 3.72 45.89 4.62L45.89 4.62Q45.89 5.60 45.37 5.77L45.37 5.77Q45.14 5.85 44.65 5.85L44.65 5.85L40.35 5.85L40.35 7.27L43.12 7.27Q43.44 7.27 43.60 7.29Q43.76 7.31 43.97 7.42L43.97 7.42Q44.35 7.62 44.35 8.51L44.35 8.51Q44.35 9.49 43.82 9.66L43.82 9.66Q43.58 9.74 43.09 9.74L43.09 9.74L40.35 9.74ZM47.08 12.35L46.96 12.19Q46.59 11.75 46.59 11.39Q46.59 11.03 47.19 10.44L47.19 10.44Q47.54 10.11 47.94 10.11Q48.33 10.11 49.03 10.81L49.03 10.81Q49.22 11.05 49.59 11.26Q49.95 11.48 50.26 11.48L50.26 11.48Q51.56 11.48 51.56 10.42L51.56 10.42Q51.56 10.09 51.21 9.88Q50.85 9.66 50.32 9.56Q49.78 9.46 49.17 9.25Q48.55 9.03 48.02 8.74Q47.49 8.44 47.13 7.81Q46.77 7.17 46.77 6.27L46.77 6.27Q46.77 5.04 47.69 4.12Q48.61 3.21 50.19 3.21L50.19 3.21Q51.03 3.21 51.72 3.42Q52.42 3.64 52.68 3.86L52.68 3.86L53.03 4.13Q53.47 4.54 53.47 4.82Q53.47 5.10 53.13 5.59L53.13 5.59Q52.65 6.29 52.15 6.29L52.15 6.29Q51.86 6.29 51.42 6.01L51.42 6.01Q51.38 5.98 51.26 5.87Q51.14 5.75 51.04 5.68L51.04 5.68Q50.75 5.50 50.30 5.50Q49.84 5.50 49.54 5.72Q49.24 5.94 49.24 6.32Q49.24 6.71 49.60 6.94Q49.95 7.18 50.48 7.27Q51.02 7.35 51.65 7.53Q52.28 7.70 52.81 7.95Q53.34 8.20 53.70 8.83Q54.05 9.45 54.05 10.36Q54.05 11.27 53.69 11.96Q53.33 12.66 52.74 13.03L52.74 13.03Q51.60 13.78 50.32 13.78L50.32 13.78Q49.66 13.78 49.07 13.62Q48.48 13.45 48.12 13.22L48.12 13.22Q47.38 12.77 47.08 12.35L47.08 12.35ZM55.24 12.35L55.12 12.19Q54.75 11.75 54.75 11.39Q54.75 11.03 55.36 10.44L55.36 10.44Q55.71 10.11 56.10 10.11Q56.49 10.11 57.19 10.81L57.19 10.81Q57.39 11.05 57.75 11.26Q58.11 11.48 58.42 11.48L58.42 11.48Q59.72 11.48 59.72 10.42L59.72 10.42Q59.72 10.09 59.37 9.88Q59.01 9.66 58.48 9.56Q57.95 9.46 57.33 9.25Q56.71 9.03 56.18 8.74Q55.65 8.44 55.29 7.81Q54.94 7.17 54.94 6.27L54.94 6.27Q54.94 5.04 55.85 4.12Q56.77 3.21 58.35 3.21L58.35 3.21Q59.19 3.21 59.89 3.42Q60.58 3.64 60.84 3.86L60.84 3.86L61.19 4.13Q61.63 4.54 61.63 4.82Q61.63 5.10 61.29 5.59L61.29 5.59Q60.82 6.29 60.31 6.29L60.31 6.29Q60.02 6.29 59.58 6.01L59.58 6.01Q59.54 5.98 59.42 5.87Q59.30 5.75 59.21 5.68L59.21 5.68Q58.91 5.50 58.46 5.50Q58.00 5.50 57.70 5.72Q57.40 5.94 57.40 6.32Q57.40 6.71 57.76 6.94Q58.11 7.18 58.65 7.27Q59.18 7.35 59.81 7.53Q60.44 7.70 60.97 7.95Q61.50 8.20 61.86 8.83Q62.22 9.45 62.22 10.36Q62.22 11.27 61.85 11.96Q61.49 12.66 60.90 13.03L60.90 13.03Q59.77 13.78 58.48 13.78L58.48 13.78Q57.82 13.78 57.23 13.62Q56.64 13.45 56.28 13.22L56.28 13.22Q55.54 12.77 55.24 12.35L55.24 12.35ZM63.13 12.39L63.13 4.61Q63.13 4.28 63.15 4.12Q63.17 3.96 63.28 3.75L63.28 3.75Q63.48 3.37 64.37 3.37L64.37 3.37Q65.35 3.37 65.53 3.89L65.53 3.89Q65.60 4.13 65.60 4.62L65.60 4.62L65.60 12.40Q65.60 12.74 65.58 12.89Q65.56 13.05 65.45 13.26L65.45 13.26Q65.25 13.64 64.36 13.64L64.36 13.64Q63.38 13.64 63.21 13.10L63.21 13.10Q63.13 12.88 63.13 12.39L63.13 12.39ZM71.54 3.25L71.54 3.25Q73.61 3.25 75.14 4.75Q76.66 6.24 76.66 8.46Q76.66 10.68 75.21 12.24Q73.75 13.80 71.62 13.80Q69.50 13.80 68.00 12.26Q66.51 10.72 66.51 8.60L66.51 8.60Q66.51 7.43 66.93 6.42Q67.35 5.40 68.05 4.72Q68.75 4.03 69.66 3.64Q70.57 3.25 71.54 3.25ZM68.99 8.53Q68.99 9.77 69.80 10.55Q70.60 11.33 71.60 11.33Q72.59 11.33 73.39 10.57Q74.19 9.81 74.19 8.54Q74.19 7.27 73.38 6.50Q72.58 5.73 71.58 5.73Q70.59 5.73 69.79 6.50Q68.99 7.28 68.99 8.53ZM84.20 3.80Q84.34 3.56 84.60 3.47Q84.87 3.39 85.27 3.39Q85.67 3.39 85.91 3.46Q86.16 3.53 86.27 3.63Q86.39 3.72 86.45 3.92L86.45 3.92Q86.53 4.14 86.53 4.63L86.53 4.63L86.53 12.40Q86.53 12.74 86.51 12.89Q86.49 13.05 86.38 13.26L86.38 13.26Q86.18 13.64 85.29 13.64L85.29 13.64Q84.74 13.64 84.53 13.55Q84.32 13.47 84.18 13.29L84.18 13.29Q81.03 9.09 80.04 7.80L80.04 7.80L80.04 12.40Q80.04 12.74 80.02 12.89Q80.00 13.05 79.88 13.26L79.88 13.26Q79.69 13.64 78.79 13.64L78.79 13.64Q77.92 13.64 77.73 13.26L77.73 13.26Q77.62 13.05 77.59 12.88Q77.57 12.71 77.57 12.39L77.57 12.39L77.57 4.58Q77.57 4.05 77.71 3.80Q77.84 3.56 78.11 3.47Q78.37 3.39 78.79 3.39Q79.21 3.39 79.46 3.47Q79.70 3.54 79.80 3.64L79.80 3.64Q79.86 3.68 80.12 4.00L80.12 4.00Q83.08 8.02 84.07 9.31L84.07 9.31L84.07 4.58Q84.07 4.05 84.20 3.80ZM93.58 4.10L93.58 4.10L97.36 11.91Q97.59 12.39 97.59 12.63L97.59 12.63Q97.59 13.13 96.78 13.54L96.78 13.54Q96.31 13.78 96.03 13.78Q95.76 13.78 95.58 13.65Q95.41 13.52 95.33 13.38Q95.26 13.24 95.12 12.96L95.12 12.96L94.39 11.45L90.51 11.45L89.78 12.96Q89.64 13.24 89.56 13.37Q89.49 13.50 89.31 13.63Q89.14 13.76 88.86 13.76Q88.59 13.76 88.12 13.52L88.12 13.52Q87.30 13.13 87.30 12.63L87.30 12.63Q87.30 12.39 87.54 11.91L87.54 11.91L91.32 4.09Q91.48 3.77 91.79 3.57Q92.11 3.37 92.46 3.37L92.46 3.37Q93.21 3.37 93.58 4.10ZM93.38 9.38L92.44 7.46L91.52 9.38L93.38 9.38ZM100.84 4.62L100.84 11.56L104.65 11.56Q105.11 11.56 105.32 11.67Q105.53 11.77 105.60 12.00Q105.67 12.22 105.67 12.59Q105.67 12.96 105.60 13.19Q105.53 13.41 105.36 13.50L105.36 13.50Q105.10 13.64 104.64 13.64L104.64 13.64L99.60 13.64Q98.62 13.64 98.45 13.10L98.45 13.10Q98.36 12.88 98.36 12.39L98.36 12.39L98.36 4.61Q98.36 4.28 98.39 4.12Q98.41 3.96 98.52 3.75L98.52 3.75Q98.71 3.37 99.61 3.37L99.61 3.37Q100.59 3.37 100.77 3.89L100.77 3.89Q100.84 4.13 100.84 4.62L100.84 4.62ZM116.05 4.10L116.05 4.10L119.83 11.91Q120.06 12.39 120.06 12.63L120.06 12.63Q120.06 13.13 119.25 13.54L119.25 13.54Q118.78 13.78 118.50 13.78Q118.23 13.78 118.06 13.65Q117.88 13.52 117.80 13.38Q117.73 13.24 117.59 12.96L117.59 12.96L116.86 11.45L112.98 11.45L112.25 12.96Q112.11 13.24 112.04 13.37Q111.96 13.50 111.78 13.63Q111.61 13.76 111.34 13.76Q111.06 13.76 110.59 13.52L110.59 13.52Q109.77 13.13 109.77 12.63L109.77 12.63Q109.77 12.39 110.01 11.91L110.01 11.91L113.79 4.09Q113.95 3.77 114.26 3.57Q114.58 3.37 114.93 3.37L114.93 3.37Q115.68 3.37 116.05 4.10ZM115.85 9.38L114.91 7.46L113.99 9.38L115.85 9.38ZM122.08 3.36L122.08 3.36L124.67 3.37Q126.70 3.37 128.24 4.84Q129.78 6.30 129.78 8.44Q129.78 10.57 128.28 12.10Q126.77 13.62 124.63 13.62L124.63 13.62L122.07 13.62Q121.21 13.62 121.00 13.27L121.00 13.27Q120.83 12.98 120.83 12.38L120.83 12.38L120.83 4.59Q120.83 4.26 120.86 4.10Q120.88 3.95 120.99 3.74L120.99 3.74Q121.18 3.36 122.08 3.36ZM124.67 11.14Q125.68 11.14 126.49 10.40Q127.30 9.65 127.30 8.51Q127.30 7.38 126.51 6.62Q125.72 5.85 124.66 5.85L124.66 5.85L123.31 5.85L123.31 11.14L124.67 11.14ZM139.50 3.53L139.50 3.53Q140.32 3.93 140.32 4.42L140.32 4.42Q140.32 4.65 140.11 5.10L140.11 5.10L136.25 12.94Q136.09 13.24 135.78 13.43Q135.46 13.62 135.13 13.62L135.13 13.62L134.99 13.62Q134.64 13.62 134.32 13.43Q134.01 13.24 133.85 12.94L133.85 12.94L129.99 5.10Q129.78 4.65 129.78 4.42L129.78 4.42Q129.78 3.93 130.61 3.53L130.61 3.53Q131.07 3.29 131.31 3.29Q131.56 3.29 131.68 3.35Q131.81 3.40 131.92 3.54L131.92 3.54Q132.05 3.71 132.15 3.91Q132.26 4.12 132.69 5.08Q133.13 6.03 133.62 7.11Q134.12 8.19 134.56 9.15Q135.00 10.11 135.06 10.22L135.06 10.22L137.86 4.09Q137.97 3.82 138.05 3.67L138.05 3.67Q138.31 3.29 138.67 3.29Q139.03 3.29 139.50 3.53ZM141.09 12.39L141.09 4.61Q141.09 4.28 141.11 4.12Q141.13 3.96 141.25 3.75L141.25 3.75Q141.44 3.37 142.34 3.37L142.34 3.37Q143.32 3.37 143.50 3.89L143.50 3.89Q143.57 4.13 143.57 4.62L143.57 4.62L143.57 12.40Q143.57 12.74 143.55 12.89Q143.53 13.05 143.42 13.26L143.42 13.26Q143.22 13.64 142.32 13.64L142.32 13.64Q141.34 13.64 141.18 13.10L141.18 13.10Q141.09 12.88 141.09 12.39L141.09 12.39ZM151.10 10.95L151.10 10.95L151.35 10.77Q151.83 10.49 152.03 10.49L152.03 10.49Q152.46 10.49 152.96 11.27L152.96 11.27Q153.27 11.76 153.27 12.05Q153.27 12.35 153.08 12.54Q152.89 12.74 152.64 12.89Q152.39 13.05 152.16 13.19Q151.93 13.33 151.21 13.55Q150.50 13.78 149.84 13.78Q149.17 13.78 148.49 13.60Q147.81 13.43 147.09 13.01Q146.37 12.60 145.80 12.01Q145.22 11.41 144.85 10.48Q144.48 9.55 144.48 8.46Q144.48 7.36 144.84 6.48Q145.21 5.59 145.78 5.01Q146.34 4.42 147.07 4.03L147.07 4.03Q148.44 3.28 149.83 3.28L149.83 3.28Q150.49 3.28 151.16 3.48Q151.84 3.68 152.19 3.89L152.19 3.89L152.53 4.09Q152.78 4.24 152.92 4.34L152.92 4.34Q153.29 4.63 153.29 5.01Q153.29 5.38 152.99 5.78L152.99 5.78Q152.45 6.54 152.01 6.54L152.01 6.54Q151.76 6.54 151.30 6.23L151.30 6.23Q150.71 5.75 149.73 5.75L149.73 5.75Q148.82 5.75 147.94 6.38L147.94 6.38Q147.52 6.69 147.24 7.25Q146.96 7.81 146.96 8.52Q146.96 9.23 147.24 9.79Q147.52 10.35 147.95 10.67L147.95 10.67Q148.81 11.28 149.73 11.28L149.73 11.28Q150.16 11.28 150.55 11.17Q150.93 11.06 151.10 10.95ZM156.67 9.74L156.67 11.16L160.99 11.16Q161.31 11.16 161.47 11.18Q161.63 11.20 161.84 11.31L161.84 11.31Q162.22 11.51 162.22 12.40L162.22 12.40Q162.22 13.38 161.70 13.55L161.70 13.55Q161.46 13.64 160.97 13.64L160.97 13.64L155.43 13.64Q154.45 13.64 154.28 13.10L154.28 13.10Q154.20 12.88 154.20 12.39L154.20 12.39L154.20 4.61Q154.20 3.89 154.46 3.63Q154.73 3.37 155.47 3.37L155.47 3.37L160.99 3.37Q161.31 3.37 161.47 3.40Q161.63 3.42 161.84 3.53L161.84 3.53Q162.22 3.72 162.22 4.62L162.22 4.62Q162.22 5.60 161.70 5.77L161.70 5.77Q161.46 5.85 160.97 5.85L160.97 5.85L156.67 5.85L156.67 7.27L159.45 7.27Q159.77 7.27 159.93 7.29Q160.09 7.31 160.30 7.42L160.30 7.42Q160.68 7.62 160.68 8.51L160.68 8.51Q160.68 9.49 160.15 9.66L160.15 9.66Q159.91 9.74 159.42 9.74L159.42 9.74L156.67 9.74ZM166.67 12.39L166.67 4.61Q166.67 4.28 166.69 4.12Q166.71 3.96 166.82 3.75L166.82 3.75Q167.02 3.37 167.92 3.37L167.92 3.37Q168.90 3.37 169.08 3.89L169.08 3.89Q169.15 4.13 169.15 4.62L169.15 4.62L169.15 12.40Q169.15 12.74 169.13 12.89Q169.11 13.05 168.99 13.26L168.99 13.26Q168.80 13.64 167.90 13.64L167.90 13.64Q166.92 13.64 166.75 13.10L166.75 13.10Q166.67 12.88 166.67 12.39L166.67 12.39ZM170.55 12.35L170.42 12.19Q170.06 11.75 170.06 11.39Q170.06 11.03 170.66 10.44L170.66 10.44Q171.01 10.11 171.40 10.11Q171.79 10.11 172.49 10.81L172.49 10.81Q172.69 11.05 173.05 11.26Q173.42 11.48 173.73 11.48L173.73 11.48Q175.03 11.48 175.03 10.42L175.03 10.42Q175.03 10.09 174.67 9.88Q174.31 9.66 173.78 9.56Q173.25 9.46 172.63 9.25Q172.02 9.03 171.49 8.74Q170.95 8.44 170.60 7.81Q170.24 7.17 170.24 6.27L170.24 6.27Q170.24 5.04 171.16 4.12Q172.07 3.21 173.66 3.21L173.66 3.21Q174.50 3.21 175.19 3.42Q175.88 3.64 176.15 3.86L176.15 3.86L176.50 4.13Q176.93 4.54 176.93 4.82Q176.93 5.10 176.60 5.59L176.60 5.59Q176.12 6.29 175.62 6.29L175.62 6.29Q175.32 6.29 174.89 6.01L174.89 6.01Q174.85 5.98 174.73 5.87Q174.61 5.75 174.51 5.68L174.51 5.68Q174.22 5.50 173.76 5.50Q173.31 5.50 173.00 5.72Q172.70 5.94 172.70 6.32Q172.70 6.71 173.06 6.94Q173.42 7.18 173.95 7.27Q174.48 7.35 175.11 7.53Q175.74 7.70 176.27 7.95Q176.81 8.20 177.16 8.83Q177.52 9.45 177.52 10.36Q177.52 11.27 177.16 11.96Q176.79 12.66 176.20 13.03L176.20 13.03Q175.07 13.78 173.78 13.78L173.78 13.78Q173.12 13.78 172.54 13.62Q171.95 13.45 171.58 13.22L171.58 13.22Q170.84 12.77 170.55 12.35L170.55 12.35ZM187.89 4.10L187.89 4.10L191.67 11.91Q191.91 12.39 191.91 12.63L191.91 12.63Q191.91 13.13 191.10 13.54L191.10 13.54Q190.62 13.78 190.35 13.78Q190.08 13.78 189.90 13.65Q189.73 13.52 189.65 13.38Q189.57 13.24 189.43 12.96L189.43 12.96L188.71 11.45L184.83 11.45L184.10 12.96Q183.96 13.24 183.88 13.37Q183.81 13.50 183.63 13.63Q183.46 13.76 183.18 13.76Q182.91 13.76 182.43 13.52L182.43 13.52Q181.62 13.13 181.62 12.63L181.62 12.63Q181.62 12.39 181.86 11.91L181.86 11.91L185.64 4.09Q185.79 3.77 186.11 3.57Q186.42 3.37 186.77 3.37L186.77 3.37Q187.53 3.37 187.89 4.10ZM187.70 9.38L186.76 7.46L185.84 9.38L187.70 9.38ZM199.99 8.13L199.99 8.13Q200.82 9.11 200.82 10.33L200.82 10.33Q200.79 11.73 199.86 12.68Q198.93 13.62 197.60 13.62L197.60 13.62L193.91 13.62Q192.93 13.62 192.77 13.09L192.77 13.09Q192.68 12.85 192.68 12.36L192.68 12.36L192.68 4.59Q192.68 4.26 192.70 4.10Q192.72 3.95 192.84 3.74L192.84 3.74Q193.03 3.36 193.93 3.36L193.93 3.36L197.46 3.36Q198.74 3.36 199.61 4.26L199.61 4.26Q200.52 5.17 200.52 6.44L200.52 6.44Q200.52 7.36 199.99 8.13ZM198.34 10.19L198.34 10.19Q198.34 9.86 198.26 9.66Q198.18 9.46 198.00 9.38L198.00 9.38Q197.72 9.27 197.22 9.27Q196.71 9.27 196.46 9.07Q196.21 8.88 196.21 8.27Q196.21 7.66 196.47 7.46Q196.73 7.27 197.33 7.27L197.33 7.27Q197.89 7.27 198.00 6.97L198.00 6.97Q198.04 6.82 198.04 6.47Q198.04 6.12 197.81 5.98Q197.58 5.84 197.12 5.84L197.12 5.84L195.16 5.84L195.16 11.14L197.46 11.14Q198.34 11.14 198.34 10.19ZM206.54 3.25L206.54 3.25Q208.61 3.25 210.14 4.75Q211.67 6.24 211.67 8.46Q211.67 10.68 210.21 12.24Q208.75 13.80 206.63 13.80Q204.50 13.80 203.01 12.26Q201.52 10.72 201.52 8.60L201.52 8.60Q201.52 7.43 201.94 6.42Q202.36 5.40 203.06 4.72Q203.76 4.03 204.67 3.64Q205.58 3.25 206.54 3.25ZM203.99 8.53Q203.99 9.77 204.80 10.55Q205.60 11.33 206.60 11.33Q207.59 11.33 208.39 10.57Q209.19 9.81 209.19 8.54Q209.19 7.27 208.38 6.50Q207.58 5.73 206.58 5.73Q205.59 5.73 204.79 6.50Q203.99 7.28 203.99 8.53ZM219.28 3.75Q219.42 3.53 219.69 3.44Q219.95 3.36 220.35 3.36Q220.75 3.36 220.99 3.43Q221.23 3.50 221.35 3.60Q221.48 3.70 221.54 3.89L221.54 3.89Q221.62 4.13 221.62 4.62L221.62 4.62L221.62 8.85Q221.62 10.70 220.47 12.21L220.47 12.21Q219.91 12.92 219.03 13.36Q218.15 13.80 217.08 13.80Q216.01 13.80 215.13 13.36Q214.26 12.91 213.71 12.18L213.71 12.18Q212.58 10.70 212.58 8.82L212.58 8.82L212.58 4.61Q212.58 4.27 212.60 4.11Q212.62 3.95 212.73 3.74Q212.84 3.53 213.11 3.44Q213.37 3.36 213.82 3.36Q214.27 3.36 214.54 3.44Q214.80 3.53 214.90 3.74L214.90 3.74Q215.07 4.06 215.07 4.62L215.07 4.62L215.07 8.82Q215.07 9.67 215.49 10.44L215.49 10.44Q215.70 10.84 216.12 11.07Q216.54 11.31 217.11 11.31L217.11 11.31Q218.13 11.31 218.64 10.56Q219.14 9.80 219.14 8.81L219.14 8.81L219.14 4.52Q219.14 3.98 219.28 3.75ZM223.41 3.36L223.41 3.36L231.20 3.36Q231.64 3.36 231.85 3.47Q232.06 3.57 232.13 3.79Q232.20 4.02 232.20 4.38Q232.20 4.75 232.13 4.96Q232.06 5.18 231.90 5.26L231.90 5.26Q231.64 5.39 231.18 5.39L231.18 5.39L228.51 5.39L228.51 12.43Q228.51 12.75 228.49 12.91Q228.47 13.06 228.36 13.27Q228.26 13.47 227.99 13.55Q227.72 13.64 227.29 13.64Q226.86 13.64 226.60 13.55Q226.34 13.47 226.23 13.27Q226.13 13.06 226.11 12.90Q226.09 12.74 226.09 12.42L226.09 12.42L226.09 5.39L223.40 5.39Q222.95 5.39 222.74 5.29Q222.53 5.18 222.46 4.96Q222.39 4.73 222.39 4.37Q222.39 4.00 222.46 3.79Q222.53 3.57 222.70 3.49L222.70 3.49Q222.95 3.36 223.41 3.36ZM247.42 3.77L247.42 3.77Q247.53 3.98 247.56 4.14Q247.58 4.31 247.58 4.63L247.58 4.63L247.58 12.40Q247.58 13.37 247.04 13.54L247.04 13.54Q246.78 13.62 246.37 13.62Q245.97 13.62 245.73 13.55Q245.49 13.48 245.36 13.38Q245.24 13.29 245.17 13.10L245.17 13.10Q245.10 12.87 245.10 12.38L245.10 12.38L245.10 7.69Q244.75 8.12 244.08 9.07Q243.40 10.01 243.22 10.25Q243.04 10.49 242.97 10.58Q242.90 10.67 242.63 10.83Q242.35 10.99 242.04 10.99Q241.72 10.99 241.47 10.84Q241.21 10.70 241.09 10.56L241.09 10.56L240.98 10.40Q240.70 10.05 239.88 8.91Q239.05 7.77 238.98 7.69L238.98 7.69L238.98 12.40Q238.98 12.73 238.96 12.89Q238.94 13.05 238.83 13.24L238.83 13.24Q238.62 13.62 237.73 13.62L237.73 13.62Q236.88 13.62 236.67 13.24L236.67 13.24Q236.56 13.05 236.54 12.88Q236.52 12.71 236.52 12.38L236.52 12.38L236.52 4.61Q236.52 4.28 236.54 4.12Q236.56 3.96 236.67 3.75L236.67 3.75Q236.88 3.39 237.76 3.39L237.76 3.39Q238.14 3.39 238.41 3.48Q238.69 3.57 238.77 3.67L238.77 3.67L238.85 3.75L242.03 7.92Q244.41 4.77 245.21 3.77L245.21 3.77Q245.45 3.39 246.34 3.39Q247.23 3.39 247.42 3.77ZM253.51 3.25L253.51 3.25Q255.58 3.25 257.11 4.75Q258.64 6.24 258.64 8.46Q258.64 10.68 257.18 12.24Q255.72 13.80 253.60 13.80Q251.47 13.80 249.98 12.26Q248.49 10.72 248.49 8.60L248.49 8.60Q248.49 7.43 248.91 6.42Q249.33 5.40 250.03 4.72Q250.73 4.03 251.64 3.64Q252.55 3.25 253.51 3.25ZM250.96 8.53Q250.96 9.77 251.77 10.55Q252.57 11.33 253.57 11.33Q254.56 11.33 255.36 10.57Q256.16 9.81 256.16 8.54Q256.16 7.27 255.35 6.50Q254.55 5.73 253.55 5.73Q252.56 5.73 251.76 6.50Q250.96 7.28 250.96 8.53ZM267.40 11.90L267.40 11.90Q267.61 12.40 267.61 12.63L267.61 12.63Q267.61 13.16 266.74 13.52L266.74 13.52Q266.29 13.72 266.02 13.72Q265.75 13.72 265.57 13.59Q265.40 13.45 265.31 13.31L265.31 13.31Q265.17 13.05 264.22 10.78L264.22 10.78L263.79 10.81L262.02 10.81L262.02 12.39Q262.02 12.71 262.00 12.87Q261.98 13.03 261.87 13.24L261.87 13.24Q261.67 13.62 260.78 13.62L260.78 13.62Q259.80 13.62 259.63 13.10L259.63 13.10Q259.55 12.87 259.55 12.38L259.55 12.38L259.55 4.61Q259.55 4.28 259.57 4.12Q259.59 3.96 259.70 3.75L259.70 3.75Q259.90 3.37 260.79 3.37L260.79 3.37L263.82 3.37Q265.05 3.37 266.21 4.27L266.21 4.27Q266.77 4.70 267.13 5.45Q267.50 6.19 267.50 7.10L267.50 7.10Q267.50 8.68 266.45 9.70L266.45 9.70Q266.76 10.44 267.40 11.90ZM262.02 5.85L262.02 8.33L263.82 8.33Q264.22 8.33 264.63 8.02Q265.03 7.71 265.03 7.10Q265.03 6.48 264.63 6.17Q264.22 5.85 263.79 5.85L263.79 5.85L262.02 5.85ZM270.86 9.74L270.86 11.16L275.17 11.16Q275.49 11.16 275.65 11.18Q275.81 11.20 276.02 11.31L276.02 11.31Q276.40 11.51 276.40 12.40L276.40 12.40Q276.40 13.38 275.88 13.55L275.88 13.55Q275.65 13.64 275.16 13.64L275.16 13.64L269.61 13.64Q268.63 13.64 268.46 13.10L268.46 13.10Q268.38 12.88 268.38 12.39L268.38 12.39L268.38 4.61Q268.38 3.89 268.65 3.63Q268.91 3.37 269.65 3.37L269.65 3.37L275.17 3.37Q275.49 3.37 275.65 3.40Q275.81 3.42 276.02 3.53L276.02 3.53Q276.40 3.72 276.40 4.62L276.40 4.62Q276.40 5.60 275.88 5.77L275.88 5.77Q275.65 5.85 275.16 5.85L275.16 5.85L270.86 5.85L270.86 7.27L273.63 7.27Q273.95 7.27 274.11 7.29Q274.27 7.31 274.48 7.42L274.48 7.42Q274.86 7.62 274.86 8.51L274.86 8.51Q274.86 9.49 274.33 9.66L274.33 9.66Q274.09 9.74 273.60 9.74L273.60 9.74L270.86 9.74ZM281.53 3.36L281.53 3.36L289.31 3.36Q289.76 3.36 289.97 3.47Q290.18 3.57 290.25 3.79Q290.32 4.02 290.32 4.38Q290.32 4.75 290.25 4.96Q290.18 5.18 290.01 5.26L290.01 5.26Q289.76 5.39 289.30 5.39L289.30 5.39L286.62 5.39L286.62 12.43Q286.62 12.75 286.60 12.91Q286.58 13.06 286.48 13.27Q286.37 13.47 286.10 13.55Q285.84 13.64 285.40 13.64Q284.97 13.64 284.71 13.55Q284.45 13.47 284.35 13.27Q284.24 13.06 284.22 12.90Q284.20 12.74 284.20 12.42L284.20 12.42L284.20 5.39L281.51 5.39Q281.06 5.39 280.85 5.29Q280.64 5.18 280.57 4.96Q280.50 4.73 280.50 4.37Q280.50 4.00 280.57 3.79Q280.64 3.57 280.81 3.49L280.81 3.49Q281.06 3.36 281.53 3.36ZM297.43 3.75Q297.54 3.54 297.81 3.46Q298.07 3.37 298.48 3.37Q298.89 3.37 299.12 3.44Q299.36 3.51 299.49 3.61Q299.61 3.71 299.68 3.89L299.68 3.89Q299.75 4.13 299.75 4.62L299.75 4.62L299.75 12.39Q299.75 12.71 299.73 12.87Q299.71 13.03 299.60 13.24L299.60 13.24Q299.40 13.62 298.51 13.62L298.51 13.62Q297.53 13.62 297.36 13.10L297.36 13.10Q297.28 12.87 297.28 12.38L297.28 12.38L297.28 9.53L293.57 9.53L293.57 12.39Q293.57 12.71 293.55 12.87Q293.52 13.03 293.41 13.24L293.41 13.24Q293.22 13.62 292.32 13.62L292.32 13.62Q291.34 13.62 291.17 13.10L291.17 13.10Q291.09 12.87 291.09 12.38L291.09 12.38L291.09 4.61Q291.09 4.28 291.11 4.12Q291.13 3.96 291.24 3.75L291.24 3.75Q291.44 3.37 292.33 3.37L292.33 3.37Q293.31 3.37 293.50 3.89L293.50 3.89Q293.57 4.13 293.57 4.62L293.57 4.62L293.57 7.48L297.28 7.48L297.28 4.61Q297.28 4.28 297.30 4.12Q297.32 3.96 297.43 3.75ZM306.80 4.10L306.80 4.10L310.58 11.91Q310.81 12.39 310.81 12.63L310.81 12.63Q310.81 13.13 310.00 13.54L310.00 13.54Q309.53 13.78 309.25 13.78Q308.98 13.78 308.81 13.65Q308.63 13.52 308.55 13.38Q308.48 13.24 308.34 12.96L308.34 12.96L307.61 11.45L303.73 11.45L303.00 12.96Q302.86 13.24 302.79 13.37Q302.71 13.50 302.53 13.63Q302.36 13.76 302.09 13.76Q301.81 13.76 301.34 13.52L301.34 13.52Q300.52 13.13 300.52 12.63L300.52 12.63Q300.52 12.39 300.76 11.91L300.76 11.91L304.54 4.09Q304.70 3.77 305.01 3.57Q305.33 3.37 305.68 3.37L305.68 3.37Q306.43 3.37 306.80 4.10ZM306.60 9.38L305.66 7.46L304.74 9.38L306.60 9.38ZM318.21 3.80Q318.35 3.56 318.61 3.47Q318.88 3.39 319.28 3.39Q319.68 3.39 319.92 3.46Q320.17 3.53 320.29 3.63Q320.40 3.72 320.46 3.92L320.46 3.92Q320.54 4.14 320.54 4.63L320.54 4.63L320.54 12.40Q320.54 12.74 320.52 12.89Q320.50 13.05 320.39 13.26L320.39 13.26Q320.19 13.64 319.30 13.64L319.30 13.64Q318.75 13.64 318.54 13.55Q318.33 13.47 318.19 13.29L318.19 13.29Q315.04 9.09 314.05 7.80L314.05 7.80L314.05 12.40Q314.05 12.74 314.03 12.89Q314.01 13.05 313.89 13.26L313.89 13.26Q313.70 13.64 312.80 13.64L312.80 13.64Q311.93 13.64 311.74 13.26L311.74 13.26Q311.63 13.05 311.61 12.88Q311.58 12.71 311.58 12.39L311.58 12.39L311.58 4.58Q311.58 4.05 311.72 3.80Q311.85 3.56 312.12 3.47Q312.38 3.39 312.80 3.39Q313.22 3.39 313.47 3.47Q313.71 3.54 313.81 3.64L313.81 3.64Q313.87 3.68 314.13 4.00L314.13 4.00Q317.09 8.02 318.08 9.31L318.08 9.31L318.08 4.58Q318.08 4.05 318.21 3.80ZM330.44 3.37Q330.99 3.37 331.25 3.47Q331.51 3.56 331.62 3.77L331.62 3.77Q331.77 4.09 331.77 4.63L331.77 4.63L331.77 10.05Q331.77 11.52 330.71 12.65Q329.64 13.78 327.99 13.78L327.99 13.78Q327.07 13.78 326.35 13.37L326.35 13.37Q325.71 13.02 325.46 12.74L325.46 12.74L325.35 12.63Q324.86 12.11 324.86 11.74Q324.86 11.37 325.35 10.86Q325.84 10.36 326.21 10.36Q326.59 10.36 327.05 10.82Q327.52 11.28 328.05 11.28Q328.59 11.28 328.94 10.92Q329.29 10.56 329.29 9.95L329.29 9.95L329.29 4.72Q329.29 3.88 329.57 3.64L329.57 3.64Q329.90 3.37 330.44 3.37ZM339.60 3.75Q339.74 3.53 340.00 3.44Q340.27 3.36 340.67 3.36Q341.07 3.36 341.31 3.43Q341.54 3.50 341.67 3.60Q341.80 3.70 341.85 3.89L341.85 3.89Q341.94 4.13 341.94 4.62L341.94 4.62L341.94 8.85Q341.94 10.70 340.79 12.21L340.79 12.21Q340.23 12.92 339.35 13.36Q338.46 13.80 337.39 13.80Q336.32 13.80 335.45 13.36Q334.57 12.91 334.03 12.18L334.03 12.18Q332.89 10.70 332.89 8.82L332.89 8.82L332.89 4.61Q332.89 4.27 332.91 4.11Q332.93 3.95 333.05 3.74Q333.16 3.53 333.42 3.44Q333.69 3.36 334.14 3.36Q334.59 3.36 334.85 3.44Q335.12 3.53 335.22 3.74L335.22 3.74Q335.38 4.06 335.38 4.62L335.38 4.62L335.38 8.82Q335.38 9.67 335.80 10.44L335.80 10.44Q336.01 10.84 336.43 11.07Q336.85 11.31 337.43 11.31L337.43 11.31Q338.45 11.31 338.95 10.56Q339.46 9.80 339.46 8.81L339.46 8.81L339.46 4.52Q339.46 3.98 339.60 3.75ZM342.92 12.35L342.79 12.19Q342.43 11.75 342.43 11.39Q342.43 11.03 343.03 10.44L343.03 10.44Q343.38 10.11 343.77 10.11Q344.16 10.11 344.86 10.81L344.86 10.81Q345.06 11.05 345.42 11.26Q345.79 11.48 346.09 11.48L346.09 11.48Q347.40 11.48 347.40 10.42L347.40 10.42Q347.40 10.09 347.04 9.88Q346.68 9.66 346.15 9.56Q345.62 9.46 345.00 9.25Q344.39 9.03 343.85 8.74Q343.32 8.44 342.96 7.81Q342.61 7.17 342.61 6.27L342.61 6.27Q342.61 5.04 343.52 4.12Q344.44 3.21 346.02 3.21L346.02 3.21Q346.86 3.21 347.56 3.42Q348.25 3.64 348.52 3.86L348.52 3.86L348.87 4.13Q349.30 4.54 349.30 4.82Q349.30 5.10 348.96 5.59L348.96 5.59Q348.49 6.29 347.98 6.29L347.98 6.29Q347.69 6.29 347.26 6.01L347.26 6.01Q347.21 5.98 347.09 5.87Q346.98 5.75 346.88 5.68L346.88 5.68Q346.58 5.50 346.13 5.50Q345.67 5.50 345.37 5.72Q345.07 5.94 345.07 6.32Q345.07 6.71 345.43 6.94Q345.79 7.18 346.32 7.27Q346.85 7.35 347.48 7.53Q348.11 7.70 348.64 7.95Q349.17 8.20 349.53 8.83Q349.89 9.45 349.89 10.36Q349.89 11.27 349.52 11.96Q349.16 12.66 348.57 13.03L348.57 13.03Q347.44 13.78 346.15 13.78L346.15 13.78Q345.49 13.78 344.90 13.62Q344.32 13.45 343.95 13.22L343.95 13.22Q343.21 12.77 342.92 12.35L342.92 12.35ZM350.77 3.36L350.77 3.36L358.55 3.36Q359.00 3.36 359.21 3.47Q359.42 3.57 359.49 3.79Q359.56 4.02 359.56 4.38Q359.56 4.75 359.49 4.96Q359.42 5.18 359.25 5.26L359.25 5.26Q359.00 5.39 358.54 5.39L358.54 5.39L355.87 5.39L355.87 12.43Q355.87 12.75 355.84 12.91Q355.82 13.06 355.72 13.27Q355.61 13.47 355.35 13.55Q355.08 13.64 354.65 13.64Q354.21 13.64 353.95 13.55Q353.70 13.47 353.59 13.27Q353.49 13.06 353.46 12.90Q353.44 12.74 353.44 12.42L353.44 12.42L353.44 5.39L350.76 5.39Q350.31 5.39 350.10 5.29Q349.89 5.18 349.82 4.96Q349.75 4.73 349.75 4.37Q349.75 4.00 349.82 3.79Q349.89 3.57 350.06 3.49L350.06 3.49Q350.31 3.36 350.77 3.36ZM363.87 12.39L363.87 4.61Q363.87 4.28 363.89 4.12Q363.92 3.96 364.03 3.75L364.03 3.75Q364.22 3.37 365.12 3.37L365.12 3.37Q366.10 3.37 366.28 3.89L366.28 3.89Q366.35 4.13 366.35 4.62L366.35 4.62L366.35 12.40Q366.35 12.74 366.33 12.89Q366.31 13.05 366.20 13.26L366.20 13.26Q366.00 13.64 365.11 13.64L365.11 13.64Q364.13 13.64 363.96 13.10L363.96 13.10Q363.87 12.88 363.87 12.39L363.87 12.39ZM374.10 3.80Q374.23 3.56 374.50 3.47Q374.77 3.39 375.16 3.39Q375.56 3.39 375.81 3.46Q376.05 3.53 376.17 3.63Q376.29 3.72 376.35 3.92L376.35 3.92Q376.43 4.14 376.43 4.63L376.43 4.63L376.43 12.40Q376.43 12.74 376.41 12.89Q376.39 13.05 376.28 13.26L376.28 13.26Q376.08 13.64 375.19 13.64L375.19 13.64Q374.64 13.64 374.43 13.55Q374.22 13.47 374.08 13.29L374.08 13.29Q370.93 9.09 369.94 7.80L369.94 7.80L369.94 12.40Q369.94 12.74 369.91 12.89Q369.89 13.05 369.78 13.26L369.78 13.26Q369.59 13.64 368.69 13.64L368.69 13.64Q367.82 13.64 367.63 13.26L367.63 13.26Q367.51 13.05 367.49 12.88Q367.47 12.71 367.47 12.39L367.47 12.39L367.47 4.58Q367.47 4.05 367.60 3.80Q367.74 3.56 368.00 3.47Q368.27 3.39 368.69 3.39Q369.11 3.39 369.35 3.47Q369.60 3.54 369.70 3.64L369.70 3.64Q369.75 3.68 370.02 4.00L370.02 4.00Q372.97 8.02 373.97 9.31L373.97 9.31L373.97 4.58Q373.97 4.05 374.10 3.80ZM386.92 3.53L386.92 3.53Q387.74 3.93 387.74 4.42L387.74 4.42Q387.74 4.65 387.53 5.10L387.53 5.10L383.67 12.94Q383.52 13.24 383.20 13.43Q382.89 13.62 382.55 13.62L382.55 13.62L382.41 13.62Q382.06 13.62 381.74 13.43Q381.43 13.24 381.28 12.94L381.28 12.94L377.41 5.10Q377.20 4.65 377.20 4.42L377.20 4.42Q377.20 3.93 378.03 3.53L378.03 3.53Q378.49 3.29 378.73 3.29Q378.98 3.29 379.11 3.35Q379.23 3.40 379.34 3.54L379.34 3.54Q379.47 3.71 379.57 3.91Q379.68 4.12 380.11 5.08Q380.55 6.03 381.04 7.11Q381.54 8.19 381.98 9.15Q382.42 10.11 382.48 10.22L382.48 10.22L385.28 4.09Q385.39 3.82 385.48 3.67L385.48 3.67Q385.73 3.29 386.09 3.29Q386.46 3.29 386.92 3.53ZM390.99 9.74L390.99 11.16L395.30 11.16Q395.63 11.16 395.79 11.18Q395.95 11.20 396.16 11.31L396.16 11.31Q396.54 11.51 396.54 12.40L396.54 12.40Q396.54 13.38 396.02 13.55L396.02 13.55Q395.78 13.64 395.29 13.64L395.29 13.64L389.75 13.64Q388.77 13.64 388.60 13.10L388.60 13.10Q388.51 12.88 388.51 12.39L388.51 12.39L388.51 4.61Q388.51 3.89 388.78 3.63Q389.05 3.37 389.79 3.37L389.79 3.37L395.30 3.37Q395.63 3.37 395.79 3.40Q395.95 3.42 396.16 3.53L396.16 3.53Q396.54 3.72 396.54 4.62L396.54 4.62Q396.54 5.60 396.02 5.77L396.02 5.77Q395.78 5.85 395.29 5.85L395.29 5.85L390.99 5.85L390.99 7.27L393.76 7.27Q394.09 7.27 394.25 7.29Q394.41 7.31 394.62 7.42L394.62 7.42Q395.00 7.62 395.00 8.51L395.00 8.51Q395.00 9.49 394.46 9.66L394.46 9.66Q394.23 9.74 393.74 9.74L393.74 9.74L390.99 9.74ZM397.73 12.35L397.60 12.19Q397.24 11.75 397.24 11.39Q397.24 11.03 397.84 10.44L397.84 10.44Q398.19 10.11 398.58 10.11Q398.97 10.11 399.67 10.81L399.67 10.81Q399.87 11.05 400.23 11.26Q400.60 11.48 400.90 11.48L400.90 11.48Q402.21 11.48 402.21 10.42L402.21 10.42Q402.21 10.09 401.85 9.88Q401.49 9.66 400.96 9.56Q400.43 9.46 399.81 9.25Q399.20 9.03 398.66 8.74Q398.13 8.44 397.77 7.81Q397.42 7.17 397.42 6.27L397.42 6.27Q397.42 5.04 398.33 4.12Q399.25 3.21 400.83 3.21L400.83 3.21Q401.67 3.21 402.37 3.42Q403.06 3.64 403.33 3.86L403.33 3.86L403.68 4.13Q404.11 4.54 404.11 4.82Q404.11 5.10 403.77 5.59L403.77 5.59Q403.30 6.29 402.79 6.29L402.79 6.29Q402.50 6.29 402.07 6.01L402.07 6.01Q402.02 5.98 401.90 5.87Q401.79 5.75 401.69 5.68L401.69 5.68Q401.39 5.50 400.94 5.50Q400.48 5.50 400.18 5.72Q399.88 5.94 399.88 6.32Q399.88 6.71 400.24 6.94Q400.60 7.18 401.13 7.27Q401.66 7.35 402.29 7.53Q402.92 7.70 403.45 7.95Q403.98 8.20 404.34 8.83Q404.70 9.45 404.70 10.36Q404.70 11.27 404.33 11.96Q403.97 12.66 403.38 13.03L403.38 13.03Q402.25 13.78 400.96 13.78L400.96 13.78Q400.30 13.78 399.71 13.62Q399.13 13.45 398.76 13.22L398.76 13.22Q398.02 12.77 397.73 12.35L397.73 12.35ZM405.58 3.36L405.58 3.36L413.36 3.36Q413.81 3.36 414.02 3.47Q414.23 3.57 414.30 3.79Q414.37 4.02 414.37 4.38Q414.37 4.75 414.30 4.96Q414.23 5.18 414.06 5.26L414.06 5.26Q413.81 5.39 413.35 5.39L413.35 5.39L410.68 5.39L410.68 12.43Q410.68 12.75 410.65 12.91Q410.63 13.06 410.53 13.27Q410.42 13.47 410.16 13.55Q409.89 13.64 409.46 13.64Q409.02 13.64 408.76 13.55Q408.51 13.47 408.40 13.27Q408.30 13.06 408.27 12.90Q408.25 12.74 408.25 12.42L408.25 12.42L408.25 5.39L405.57 5.39Q405.12 5.39 404.91 5.29Q404.70 5.18 404.63 4.96Q404.56 4.73 404.56 4.37Q404.56 4.00 404.63 3.79Q404.70 3.57 404.87 3.49L404.87 3.49Q405.12 3.36 405.58 3.36ZM426.05 3.77L426.05 3.77Q426.16 3.98 426.18 4.14Q426.20 4.31 426.20 4.63L426.20 4.63L426.20 12.40Q426.20 13.37 425.67 13.54L425.67 13.54Q425.40 13.62 425.00 13.62Q424.59 13.62 424.35 13.55Q424.12 13.48 423.99 13.38Q423.86 13.29 423.79 13.10L423.79 13.10Q423.72 12.87 423.72 12.38L423.72 12.38L423.72 7.69Q423.37 8.12 422.70 9.07Q422.03 10.01 421.85 10.25Q421.67 10.49 421.60 10.58Q421.53 10.67 421.25 10.83Q420.98 10.99 420.66 10.99Q420.35 10.99 420.09 10.84Q419.83 10.70 419.72 10.56L419.72 10.56L419.61 10.40Q419.33 10.05 418.50 8.91Q417.68 7.77 417.61 7.69L417.61 7.69L417.61 12.40Q417.61 12.73 417.58 12.89Q417.56 13.05 417.45 13.24L417.45 13.24Q417.24 13.62 416.36 13.62L416.36 13.62Q415.51 13.62 415.30 13.24L415.30 13.24Q415.18 13.05 415.16 12.88Q415.14 12.71 415.14 12.38L415.14 12.38L415.14 4.61Q415.14 4.28 415.16 4.12Q415.18 3.96 415.30 3.75L415.30 3.75Q415.51 3.39 416.39 3.39L416.39 3.39Q416.77 3.39 417.04 3.48Q417.31 3.57 417.40 3.67L417.40 3.67L417.48 3.75L420.66 7.92Q423.04 4.77 423.84 3.77L423.84 3.77Q424.07 3.39 424.96 3.39Q425.85 3.39 426.05 3.77ZM429.80 9.74L429.80 11.16L434.11 11.16Q434.43 11.16 434.59 11.18Q434.76 11.20 434.97 11.31L434.97 11.31Q435.34 11.51 435.34 12.40L435.34 12.40Q435.34 13.38 434.83 13.55L434.83 13.55Q434.59 13.64 434.10 13.64L434.10 13.64L428.55 13.64Q427.57 13.64 427.41 13.10L427.41 13.10Q427.32 12.88 427.32 12.39L427.32 12.39L427.32 4.61Q427.32 3.89 427.59 3.63Q427.85 3.37 428.60 3.37L428.60 3.37L434.11 3.37Q434.43 3.37 434.59 3.40Q434.76 3.42 434.97 3.53L434.97 3.53Q435.34 3.72 435.34 4.62L435.34 4.62Q435.34 5.60 434.83 5.77L434.83 5.77Q434.59 5.85 434.10 5.85L434.10 5.85L429.80 5.85L429.80 7.27L432.57 7.27Q432.89 7.27 433.05 7.29Q433.22 7.31 433.43 7.42L433.43 7.42Q433.80 7.62 433.80 8.51L433.80 8.51Q433.80 9.49 433.27 9.66L433.27 9.66Q433.03 9.74 432.54 9.74L432.54 9.74L429.80 9.74ZM442.88 3.80Q443.02 3.56 443.28 3.47Q443.55 3.39 443.95 3.39Q444.35 3.39 444.59 3.46Q444.84 3.53 444.95 3.63Q445.07 3.72 445.13 3.92L445.13 3.92Q445.21 4.14 445.21 4.63L445.21 4.63L445.21 12.40Q445.21 12.74 445.19 12.89Q445.17 13.05 445.06 13.26L445.06 13.26Q444.86 13.64 443.97 13.64L443.97 13.64Q443.42 13.64 443.21 13.55Q443.00 13.47 442.86 13.29L442.86 13.29Q439.71 9.09 438.72 7.80L438.72 7.80L438.72 12.40Q438.72 12.74 438.70 12.89Q438.68 13.05 438.56 13.26L438.56 13.26Q438.37 13.64 437.47 13.64L437.47 13.64Q436.60 13.64 436.41 13.26L436.41 13.26Q436.30 13.05 436.27 12.88Q436.25 12.71 436.25 12.39L436.25 12.39L436.25 4.58Q436.25 4.05 436.39 3.80Q436.52 3.56 436.79 3.47Q437.05 3.39 437.47 3.39Q437.89 3.39 438.14 3.47Q438.38 3.54 438.48 3.64L438.48 3.64Q438.54 3.68 438.80 4.00L438.80 4.00Q441.76 8.02 442.75 9.31L442.75 9.31L442.75 4.58Q442.75 4.05 442.88 3.80ZM447.01 3.36L447.01 3.36L454.79 3.36Q455.24 3.36 455.45 3.47Q455.66 3.57 455.73 3.79Q455.80 4.02 455.80 4.38Q455.80 4.75 455.73 4.96Q455.66 5.18 455.49 5.26L455.49 5.26Q455.24 5.39 454.78 5.39L454.78 5.39L452.10 5.39L452.10 12.43Q452.10 12.75 452.08 12.91Q452.06 13.06 451.95 13.27Q451.85 13.47 451.58 13.55Q451.32 13.64 450.88 13.64Q450.45 13.64 450.19 13.55Q449.93 13.47 449.83 13.27Q449.72 13.06 449.70 12.90Q449.68 12.74 449.68 12.42L449.68 12.42L449.68 5.39L446.99 5.39Q446.54 5.39 446.33 5.29Q446.12 5.18 446.05 4.96Q445.98 4.73 445.98 4.37Q445.98 4.00 446.05 3.79Q446.12 3.57 446.29 3.49L446.29 3.49Q446.54 3.36 447.01 3.36ZM467.96 11.90L467.96 11.90Q468.17 12.40 468.17 12.63L468.17 12.63Q468.17 13.16 467.31 13.52L467.31 13.52Q466.86 13.72 466.58 13.72Q466.31 13.72 466.14 13.59Q465.96 13.45 465.88 13.31L465.88 13.31Q465.74 13.05 464.79 10.78L464.79 10.78L464.35 10.81L462.59 10.81L462.59 12.39Q462.59 12.71 462.57 12.87Q462.55 13.03 462.43 13.24L462.43 13.24Q462.24 13.62 461.34 13.62L461.34 13.62Q460.36 13.62 460.19 13.10L460.19 13.10Q460.11 12.87 460.11 12.38L460.11 12.38L460.11 4.61Q460.11 4.28 460.13 4.12Q460.15 3.96 460.26 3.75L460.26 3.75Q460.46 3.37 461.36 3.37L461.36 3.37L464.38 3.37Q465.61 3.37 466.77 4.27L466.77 4.27Q467.33 4.70 467.70 5.45Q468.06 6.19 468.06 7.10L468.06 7.10Q468.06 8.68 467.01 9.70L467.01 9.70Q467.32 10.44 467.96 11.90ZM462.59 5.85L462.59 8.33L464.38 8.33Q464.79 8.33 465.19 8.02Q465.60 7.71 465.60 7.10Q465.60 6.48 465.19 6.17Q464.79 5.85 464.35 5.85L464.35 5.85L462.59 5.85ZM471.42 9.74L471.42 11.16L475.73 11.16Q476.06 11.16 476.22 11.18Q476.38 11.20 476.59 11.31L476.59 11.31Q476.97 11.51 476.97 12.40L476.97 12.40Q476.97 13.38 476.45 13.55L476.45 13.55Q476.21 13.64 475.72 13.64L475.72 13.64L470.18 13.64Q469.20 13.64 469.03 13.10L469.03 13.10Q468.94 12.88 468.94 12.39L468.94 12.39L468.94 4.61Q468.94 3.89 469.21 3.63Q469.48 3.37 470.22 3.37L470.22 3.37L475.73 3.37Q476.06 3.37 476.22 3.40Q476.38 3.42 476.59 3.53L476.59 3.53Q476.97 3.72 476.97 4.62L476.97 4.62Q476.97 5.60 476.45 5.77L476.45 5.77Q476.21 5.85 475.72 5.85L475.72 5.85L471.42 5.85L471.42 7.27L474.19 7.27Q474.52 7.27 474.68 7.29Q474.84 7.31 475.05 7.42L475.05 7.42Q475.43 7.62 475.43 8.51L475.43 8.51Q475.43 9.49 474.89 9.66L474.89 9.66Q474.66 9.74 474.17 9.74L474.17 9.74L471.42 9.74ZM478.55 3.36L478.55 3.36L486.33 3.36Q486.78 3.36 486.99 3.47Q487.20 3.57 487.27 3.79Q487.34 4.02 487.34 4.38Q487.34 4.75 487.27 4.96Q487.20 5.18 487.03 5.26L487.03 5.26Q486.78 5.39 486.32 5.39L486.32 5.39L483.64 5.39L483.64 12.43Q483.64 12.75 483.62 12.91Q483.60 13.06 483.50 13.27Q483.39 13.47 483.13 13.55Q482.86 13.64 482.43 13.64Q481.99 13.64 481.73 13.55Q481.47 13.47 481.37 13.27Q481.26 13.06 481.24 12.90Q481.22 12.74 481.22 12.42L481.22 12.42L481.22 5.39L478.53 5.39Q478.09 5.39 477.88 5.29Q477.67 5.18 477.60 4.96Q477.53 4.73 477.53 4.37Q477.53 4.00 477.60 3.79Q477.67 3.57 477.83 3.49L477.83 3.49Q478.09 3.36 478.55 3.36ZM494.82 3.75Q494.96 3.53 495.22 3.44Q495.49 3.36 495.89 3.36Q496.29 3.36 496.52 3.43Q496.76 3.50 496.89 3.60Q497.01 3.70 497.07 3.89L497.07 3.89Q497.15 4.13 497.15 4.62L497.15 4.62L497.15 8.85Q497.15 10.70 496.01 12.21L496.01 12.21Q495.45 12.92 494.56 13.36Q493.68 13.80 492.61 13.80Q491.54 13.80 490.66 13.36Q489.79 12.91 489.24 12.18L489.24 12.18Q488.11 10.70 488.11 8.82L488.11 8.82L488.11 4.61Q488.11 4.27 488.13 4.11Q488.15 3.95 488.26 3.74Q488.38 3.53 488.64 3.44Q488.91 3.36 489.36 3.36Q489.80 3.36 490.07 3.44Q490.34 3.53 490.43 3.74L490.43 3.74Q490.60 4.06 490.60 4.62L490.60 4.62L490.60 8.82Q490.60 9.67 491.02 10.44L491.02 10.44Q491.23 10.84 491.65 11.07Q492.07 11.31 492.65 11.31L492.65 11.31Q493.67 11.31 494.17 10.56Q494.68 9.80 494.68 8.81L494.68 8.81L494.68 4.52Q494.68 3.98 494.82 3.75ZM506.13 11.90L506.13 11.90Q506.34 12.40 506.34 12.63L506.34 12.63Q506.34 13.16 505.47 13.52L505.47 13.52Q505.02 13.72 504.75 13.72Q504.48 13.72 504.30 13.59Q504.13 13.45 504.04 13.31L504.04 13.31Q503.90 13.05 502.95 10.78L502.95 10.78L502.52 10.81L500.75 10.81L500.75 12.39Q500.75 12.71 500.73 12.87Q500.71 13.03 500.60 13.24L500.60 13.24Q500.40 13.62 499.51 13.62L499.51 13.62Q498.53 13.62 498.36 13.10L498.36 13.10Q498.27 12.87 498.27 12.38L498.27 12.38L498.27 4.61Q498.27 4.28 498.29 4.12Q498.32 3.96 498.43 3.75L498.43 3.75Q498.62 3.37 499.52 3.37L499.52 3.37L502.54 3.37Q503.78 3.37 504.94 4.27L504.94 4.27Q505.50 4.70 505.86 5.45Q506.23 6.19 506.23 7.10L506.23 7.10Q506.23 8.68 505.18 9.70L505.18 9.70Q505.48 10.44 506.13 11.90ZM500.75 5.85L500.75 8.33L502.54 8.33Q502.95 8.33 503.36 8.02Q503.76 7.71 503.76 7.10Q503.76 6.48 503.36 6.17Q502.95 5.85 502.52 5.85L502.52 5.85L500.75 5.85ZM513.74 3.80Q513.87 3.56 514.14 3.47Q514.40 3.39 514.80 3.39Q515.20 3.39 515.44 3.46Q515.69 3.53 515.81 3.63Q515.93 3.72 515.98 3.92L515.98 3.92Q516.07 4.14 516.07 4.63L516.07 4.63L516.07 12.40Q516.07 12.74 516.05 12.89Q516.03 13.05 515.91 13.26L515.91 13.26Q515.72 13.64 514.82 13.64L514.82 13.64Q514.28 13.64 514.07 13.55Q513.86 13.47 513.72 13.29L513.72 13.29Q510.57 9.09 509.57 7.80L509.57 7.80L509.57 12.40Q509.57 12.74 509.55 12.89Q509.53 13.05 509.42 13.26L509.42 13.26Q509.22 13.64 508.33 13.64L508.33 13.64Q507.46 13.64 507.26 13.26L507.26 13.26Q507.15 13.05 507.13 12.88Q507.11 12.71 507.11 12.39L507.11 12.39L507.11 4.58Q507.11 4.05 507.24 3.80Q507.37 3.56 507.64 3.47Q507.91 3.39 508.33 3.39Q508.75 3.39 508.99 3.47Q509.24 3.54 509.33 3.64L509.33 3.64Q509.39 3.68 509.66 4.00L509.66 4.00Q512.61 8.02 513.60 9.31L513.60 9.31L513.60 4.58Q513.60 4.05 513.74 3.80ZM517.47 12.35L517.34 12.19Q516.98 11.75 516.98 11.39Q516.98 11.03 517.58 10.44L517.58 10.44Q517.93 10.11 518.32 10.11Q518.71 10.11 519.41 10.81L519.41 10.81Q519.61 11.05 519.97 11.26Q520.34 11.48 520.65 11.48L520.65 11.48Q521.95 11.48 521.95 10.42L521.95 10.42Q521.95 10.09 521.59 9.88Q521.23 9.66 520.70 9.56Q520.17 9.46 519.55 9.25Q518.94 9.03 518.41 8.74Q517.87 8.44 517.52 7.81Q517.16 7.17 517.16 6.27L517.16 6.27Q517.16 5.04 518.08 4.12Q518.99 3.21 520.58 3.21L520.58 3.21Q521.42 3.21 522.11 3.42Q522.80 3.64 523.07 3.86L523.07 3.86L523.42 4.13Q523.85 4.54 523.85 4.82Q523.85 5.10 523.52 5.59L523.52 5.59Q523.04 6.29 522.54 6.29L522.54 6.29Q522.24 6.29 521.81 6.01L521.81 6.01Q521.77 5.98 521.65 5.87Q521.53 5.75 521.43 5.68L521.43 5.68Q521.14 5.50 520.68 5.50Q520.23 5.50 519.92 5.72Q519.62 5.94 519.62 6.32Q519.62 6.71 519.98 6.94Q520.34 7.18 520.87 7.27Q521.40 7.35 522.03 7.53Q522.66 7.70 523.19 7.95Q523.73 8.20 524.08 8.83Q524.44 9.45 524.44 10.36Q524.44 11.27 524.08 11.96Q523.71 12.66 523.12 13.03L523.12 13.03Q521.99 13.78 520.70 13.78L520.70 13.78Q520.04 13.78 519.46 13.62Q518.87 13.45 518.50 13.22L518.50 13.22Q517.76 12.77 517.47 12.35L517.47 12.35ZM527.52 11.33L527.52 11.33Q527.76 11.56 527.76 12.31L527.76 12.31L527.76 12.36Q527.76 12.70 527.74 12.86Q527.72 13.02 527.59 13.24L527.59 13.24Q527.38 13.65 526.53 13.65Q525.69 13.65 525.41 13.38Q525.14 13.12 525.14 12.38L525.14 12.38L525.14 12.32Q525.14 12.00 525.16 11.83Q525.18 11.66 525.29 11.45L525.29 11.45Q525.50 11.03 526.35 11.03Q527.20 11.03 527.52 11.33Z"></path></g></svg>